<svg width="40" height="42" viewBox="0 0 40 42" fill="none" xmlns="http://www.w3.org/2000/svg" xmlns:xlink="http://www.w3.org/1999/xlink">
<path d="M18,31.205L22,31.205L22,18.804L18,18.804L18,31.205ZM20,14.67C20.567,14.67 21.042,14.472 21.425,14.076C21.808,13.68 22,13.189 22,12.603C22,12.017 21.808,11.527 21.425,11.13C21.042,10.734 20.567,10.536 20,10.536C19.433,10.536 18.958,10.734 18.575,11.13C18.192,11.527 18,12.017 18,12.603C18,13.189 18.192,13.68 18.575,14.076C18.958,14.472 19.433,14.67 20,14.67ZM20,41.539C17.233,41.539 14.633,40.997 12.2,39.912C9.767,38.826 7.65,37.354 5.85,35.494C4.05,33.633 2.625,31.446 1.575,28.931C0.525,26.417 0,23.73 0,20.871C0,18.011 0.525,15.324 1.575,12.81C2.625,10.295 4.05,8.108 5.85,6.247C7.65,4.387 9.767,2.915 12.2,1.83C14.633,0.744 17.233,0.202 20,0.202C22.767,0.202 25.367,0.744 27.8,1.83C30.233,2.915 32.35,4.387 34.15,6.247C35.95,8.108 37.375,10.295 38.425,12.81C39.475,15.324 40,18.011 40,20.871C40,23.73 39.475,26.417 38.425,28.931C37.375,31.446 35.95,33.633 34.15,35.494C32.35,37.354 30.233,38.826 27.8,39.912C25.367,40.997 22.767,41.539 20,41.539ZM20,37.406C24.467,37.406 28.25,35.804 31.35,32.6C34.45,29.396 36,25.487 36,20.871C36,16.255 34.45,12.345 31.35,9.141C28.25,5.937 24.467,4.336 20,4.336C15.533,4.336 11.75,5.937 8.65,9.141C5.55,12.345 4,16.255 4,20.871C4,25.487 5.55,29.396 8.65,32.6C11.75,35.804 15.533,37.406 20,37.406Z" fill="#FFFFFF"/>
</svg>
