<svg width="40" height="42" viewBox="0 0 40 42" fill="none" xmlns="http://www.w3.org/2000/svg" xmlns:xlink="http://www.w3.org/1999/xlink">
<path d="M18,30.445L22,30.445L22,18.044L18,18.044L18,30.445ZM20,13.91C20.567,13.91 21.042,13.712 21.425,13.316C21.808,12.92 22,12.429 22,11.844C22,11.258 21.808,10.767 21.425,10.371C21.042,9.975 20.567,9.777 20,9.777C19.433,9.777 18.958,9.975 18.575,10.371C18.192,10.767 18,11.258 18,11.844C18,12.429 18.192,12.92 18.575,13.316C18.958,13.712 19.433,13.91 20,13.91ZM20,40.78C17.233,40.78 14.633,40.237 12.2,39.152C9.767,38.067 7.65,36.594 5.85,34.734C4.05,32.874 2.625,30.686 1.575,28.172C0.525,25.657 0,22.97 0,20.111C0,17.252 0.525,14.565 1.575,12.05C2.625,9.536 4.05,7.348 5.85,5.488C7.65,3.628 9.767,2.155 12.2,1.07C14.633,-0.015 17.233,-0.558 20,-0.558C22.767,-0.558 25.367,-0.015 27.8,1.07C30.233,2.155 32.35,3.628 34.15,5.488C35.95,7.348 37.375,9.536 38.425,12.05C39.475,14.565 40,17.252 40,20.111C40,22.97 39.475,25.657 38.425,28.172C37.375,30.686 35.95,32.874 34.15,34.734C32.35,36.594 30.233,38.067 27.8,39.152C25.367,40.237 22.767,40.78 20,40.78ZM20,36.646C24.467,36.646 28.25,35.044 31.35,31.84C34.45,28.637 36,24.727 36,20.111C36,15.495 34.45,11.585 31.35,8.382C28.25,5.178 24.467,3.576 20,3.576C15.533,3.576 11.75,5.178 8.65,8.382C5.55,11.585 4,15.495 4,20.111C4,24.727 5.55,28.637 8.65,31.84C11.75,35.044 15.533,36.646 20,36.646Z" fill="#FFFFFF"/>
</svg>
